<?xml version="1.0" encoding="UTF-8" standalone="no"?>
<!-- Created with Inkscape (http://www.inkscape.org/) -->

<svg
   xmlns:dc="http://purl.org/dc/elements/1.1/"
   xmlns:cc="http://creativecommons.org/ns#"
   xmlns:rdf="http://www.w3.org/1999/02/22-rdf-syntax-ns#"
   xmlns:svg="http://www.w3.org/2000/svg"
   xmlns="http://www.w3.org/2000/svg"
   xmlns:sodipodi="http://sodipodi.sourceforge.net/DTD/sodipodi-0.dtd"
   xmlns:inkscape="http://www.inkscape.org/namespaces/inkscape"
   width="300"
   height="300"
   id="svg2"
   version="1.1"
   inkscape:version="0.48.0 r9654"
   sodipodi:docname="Flor de Lis_2.svg">
  <defs
     id="defs4" />
  <sodipodi:namedview
     id="base"
     pagecolor="#ffffff"
     bordercolor="#666666"
     borderopacity="1.0"
     inkscape:pageopacity="0.0"
     inkscape:pageshadow="2"
     inkscape:zoom="1.76"
     inkscape:cx="150"
     inkscape:cy="150"
     inkscape:document-units="px"
     inkscape:current-layer="layer1"
     showgrid="false"
     width="600px"
     inkscape:window-width="1366"
     inkscape:window-height="717"
     inkscape:window-x="-8"
     inkscape:window-y="-8"
     inkscape:window-maximized="1" />
  <metadata
     id="metadata7">
    <rdf:RDF>
      <cc:Work
         rdf:about="">
        <dc:format>image/svg+xml</dc:format>
        <dc:type
           rdf:resource="http://purl.org/dc/dcmitype/StillImage" />
        <dc:title />
      </cc:Work>
    </rdf:RDF>
  </metadata>
  <g
     inkscape:label="Capa 1"
     inkscape:groupmode="layer"
     id="layer1"
     transform="translate(0,-752.36221)">
    <path
       id="path3011-8"
       style="fill:none;stroke:#0000ff;stroke-width:4;stroke-linecap:butt;stroke-linejoin:miter;stroke-miterlimit:4;stroke-opacity:1;stroke-dasharray:none"
       d="m 117.34182,975.58571 c 9.69057,-4.32613 17.02142,-13.23921 18.73606,-23.80155 4.08659,-20.1165 1.9893,-41.22182 -5.41547,-60.3386 -5.86787,-16.73443 -12.67853,-34.34636 -10.07858,-52.37476 3.61377,-16.63687 17.48931,-28.47108 28.83715,-40.43098 11.34784,11.75301 24.1975,23.58722 27.81127,40.22409 2.59995,18.0284 -4.21071,35.64033 -10.07858,52.37476 -7.40477,19.11677 -9.50206,40.22208 -5.41547,60.33858 1.71464,10.56234 9.0725,19.44841 18.76306,23.77456 -14.35603,5.23905 -26.93707,14.22863 -31.01921,29.47489 -4.08215,-15.03944 -17.78423,-24.00195 -32.14023,-29.24099 z"
       inkscape:connector-curvature="0"
       sodipodi:nodetypes="ccccccccccc" />
    <path
       style="fill:#0000ff;stroke:#0000ff;stroke-width:1px;stroke-linecap:butt;stroke-linejoin:miter;stroke-opacity:1;fill-opacity:1"
       d="m 149.40532,799.02412 0,204.74388 c -7.40278,-10.49535 -10.84869,-22.40386 -30.63873,-28.47518 15.57756,-7.55757 17.89242,-22.18857 19.61091,-37.13765 2.09568,-32.64167 -21.14338,-68.11176 -17.46224,-101.10698 5.7582,-16.90666 17.31169,-30.19403 28.99138,-37.83021"
       id="path2986"
       inkscape:connector-curvature="0"
       sodipodi:nodetypes="cccccc" />
    <g
       id="g2990"
       transform="translate(0,0.32875965)"
       style="stroke:#0000ff;stroke-opacity:1">
      <path
         sodipodi:nodetypes="czzzszczzcc"
         transform="translate(0,752.36221)"
         inkscape:connector-curvature="0"
         id="path3809"
         d="m 202.8739,201.38074 c 2.77185,5.29847 2.61346,15.84769 -12.47835,15.09478 -15.09181,-0.75291 -23.0727,-15.11113 -23.74913,-28.98198 -0.67643,-13.87085 -0.59071,-24.70898 8.8556,-37.63633 9.44631,-12.92735 23.45813,-23.42959 38.03886,-22.34028 17.81043,1.3306 25.81416,8.88582 27.97567,23.14534 2.16151,14.25952 -10.96806,41.77053 -30.18957,31.39715 8.25548,-0.21102 18.54311,-7.26687 8.45308,-19.12006 -10.09003,-11.85319 -29.21951,-3.2592 -36.22748,6.23917 -7.00798,9.49837 -7.35269,18.81588 -3.82402,28.3782 3.32741,12.07812 18.99122,14.44087 23.14534,3.82401 z"
         style="fill:none;stroke:#0000ff;stroke-width:3;stroke-linecap:butt;stroke-linejoin:miter;stroke-miterlimit:4;stroke-opacity:1;stroke-dasharray:none" />
      <path
         sodipodi:nodetypes="cccccccccc"
         transform="translate(0,752.36221)"
         inkscape:connector-curvature="0"
         id="path2988"
         d="m 211.51309,182.10245 c 9.29722,1.99139 18.11982,-3.12483 20.46409,-16.64616 1.58068,-8.63437 -4.67775,-24.40038 -23.67115,-23.67113 -17.00808,3.01999 -25.3791,11.18275 -31.30699,22.75483 -3.47674,7.23765 -5.16753,22.45734 -1.8326,33.44503 4.07575,11.89609 12.85598,13.76404 19.54778,13.28638 5.88942,-0.5842 7.86722,-5.60183 8.094,-9.77389 -4.92216,15.04582 -24.66706,4.82185 -24.97087,-15.31691 1.13062,-24.1544 21.99961,-30.38903 36.416,-27.75394 12.78935,7.48423 12.13964,23.44037 -2.74026,23.67579 z"
         style="fill:#0000ff;stroke:#0000ff;stroke-width:1px;stroke-linecap:butt;stroke-linejoin:miter;stroke-opacity:1;fill-opacity:1" />
    </g>
    <g
       transform="matrix(-1,0,0,1,297.84308,0.32875965)"
       id="g2990-6"
       style="stroke:#0000ff;stroke-opacity:1">
      <path
         sodipodi:nodetypes="czzzszczzcc"
         transform="translate(0,752.36221)"
         inkscape:connector-curvature="0"
         id="path3809-1"
         d="m 202.8739,201.38074 c 2.77185,5.29847 2.61346,15.84769 -12.47835,15.09478 -15.09181,-0.75291 -23.0727,-15.11113 -23.74913,-28.98198 -0.67643,-13.87085 -0.59071,-24.70898 8.8556,-37.63633 9.44631,-12.92735 23.45813,-23.42959 38.03886,-22.34028 17.81043,1.3306 25.81416,8.88582 27.97567,23.14534 2.16151,14.25952 -10.96806,41.77053 -30.18957,31.39715 8.25548,-0.21102 18.54311,-7.26687 8.45308,-19.12006 -10.09003,-11.85319 -29.21951,-3.2592 -36.22748,6.23917 -7.00798,9.49837 -7.35269,18.81588 -3.82402,28.3782 3.32741,12.07812 18.99122,14.44087 23.14534,3.82401 z"
         style="fill:none;stroke:#0000ff;stroke-width:3;stroke-linecap:butt;stroke-linejoin:miter;stroke-miterlimit:4;stroke-opacity:1;stroke-dasharray:none" />
      <path
         sodipodi:nodetypes="ccccccccccc"
         transform="translate(0,752.36221)"
         inkscape:connector-curvature="0"
         id="path2988-2"
         d="m 211.51309,182.10245 c 9.29722,1.99139 18.11982,-3.12483 20.46409,-16.64616 1.58068,-8.63437 -4.67775,-24.40038 -23.67115,-23.67113 -17.00808,3.01999 -25.3791,11.18275 -31.30699,22.75483 -3.47674,7.23765 -5.16753,22.45734 -1.8326,33.44503 4.07575,11.89609 12.85598,13.76404 19.54778,13.28638 5.88942,-0.5842 7.86722,-5.60183 8.094,-9.77389 -5.98526,10.68628 -13.1971,7.06252 -20.5771,1.47688 -3.55139,-7.88541 -7.29316,-21.04286 2.2981,-35.35534 10.89131,-10.61421 22.24637,-14.51823 34.47145,-5.83363 10.3122,12.74944 3.19256,17.36402 -7.48758,20.31703 z"
         style="fill:#0000ff;stroke:#0000ff;stroke-width:1px;stroke-linecap:butt;stroke-linejoin:miter;stroke-opacity:1;fill-opacity:1" />
    </g>
    <path
       style="fill:#0000ff;stroke:#0000ff;stroke-width:1px;stroke-linecap:butt;stroke-linejoin:miter;stroke-opacity:1;fill-opacity:1"
       d="m 119.32591,181.00348 c 9.5808,0 52.78135,-0.16778 60.68884,0 7.90749,0.16778 7.95089,10.57419 0,10.57732 -7.95089,0.003 -51.12126,0 -60.58085,0 -9.45959,0 -9.68879,-10.57732 -0.10799,-10.57732 z"
       id="path3028"
       inkscape:connector-curvature="0"
       transform="translate(0,752.36221)"
       sodipodi:nodetypes="zzzzz" />
  </g>
</svg>
